<svg width="872" height="674" viewBox="0 0 872 674" fill="none" xmlns="http://www.w3.org/2000/svg">
<path d="M414.966 414.897C420.869 409.742 419.64 400.244 412.621 396.76L30.7056 207.14C22.2091 202.921 12.7145 210.715 15.197 219.87L129.897 642.879C132.024 650.722 141.628 653.631 147.749 648.285L414.966 414.897Z" fill="#92C6E6" stroke="#57A5D5" stroke-width="10"/>
<path d="M433.796 408.117C426.089 406.689 422.306 397.887 426.574 391.312L659.339 32.751C664.517 24.7744 676.693 26.6831 679.182 35.8616L793.863 458.798C795.983 466.618 789.209 473.969 781.242 472.494L433.796 408.117Z" fill="#92C6E6" stroke="#57A5D5" stroke-width="10"/>
<path d="M782.473 479.49L148.193 651.477L422.566 407.762L782.473 479.49Z" fill="#92C6E6" stroke="#57A5D5" stroke-width="10"/>
</svg>
