<svg width="684" height="874" viewBox="0 0 684 874" fill="none" xmlns="http://www.w3.org/2000/svg">
<rect x="18.0575" y="197.447" width="500" height="700" transform="rotate(-15.1711 18.0575 197.447)" fill="white"/>
<path d="M149.827 340.104L132.438 344.819L127.6 343.955C122.627 343.28 118.509 341.648 115.243 339.06C112.001 336.431 109.898 332.532 108.935 327.363C107.958 322.266 108.347 317.792 110.103 313.944C111.881 310.055 114.577 306.811 118.189 304.213C121.793 301.583 125.92 299.638 130.57 298.377L154.57 291.92L161.3 363.756L147.445 367.513L141.833 307.262L133.089 309.532C129.39 310.569 126.615 312.4 124.764 315.027C122.905 317.623 122.242 320.838 122.776 324.673C123.064 326.854 123.645 328.687 124.519 330.17C125.417 331.613 126.617 332.62 128.121 333.19C129.656 333.752 131.536 333.782 133.761 333.28L148.807 329.25L149.827 340.104ZM136.452 337.609L124.636 373.697L109.037 377.927L120.854 341.839L136.452 337.609ZM223.677 292.102L224.727 303.251L200.315 309.87L199.265 298.722L223.677 292.102ZM233.291 289.496L238.257 342.889L225.015 346.479L220.048 293.086L233.291 289.496ZM195.967 299.616L209.068 296.064L210.235 323.319C210.42 325.866 210.515 328.454 210.52 331.084C210.516 333.682 210.294 336.221 209.853 338.702C209.436 341.142 208.703 343.415 207.655 345.52C206.63 347.586 205.177 349.38 203.296 350.901C201.415 352.423 199.009 353.564 196.079 354.325L191.366 355.603L189.798 344.595L191.328 344.079C192.982 343.462 194.271 342.556 195.195 341.361C196.11 340.135 196.761 338.744 197.149 337.188C197.568 335.624 197.796 333.977 197.833 332.247C197.901 330.509 197.864 328.816 197.721 327.168C197.577 325.52 197.453 324.003 197.346 322.615L195.967 299.616ZM275.262 299.313L276.265 310.474L249.497 317.732L248.4 306.596L275.262 299.313ZM257.702 282.876L262.669 336.269L249.379 339.873L244.413 286.48L257.702 282.876ZM266.979 308.692L266.839 307.617C266.299 303.885 266.286 300.229 266.799 296.649C267.344 293.061 268.436 289.747 270.073 286.706C271.733 283.625 273.936 280.987 276.68 278.793C279.447 276.559 282.771 274.949 286.652 273.964C290.354 273.062 293.716 272.959 296.738 273.658C299.792 274.347 302.479 275.676 304.8 277.644C307.113 279.58 309.017 281.998 310.511 284.898C311.997 287.767 313.028 290.944 313.602 294.431L313.742 295.506C314.313 299.23 314.306 302.874 313.721 306.439C313.168 309.996 312.057 313.299 310.388 316.349C308.711 319.367 306.5 321.973 303.756 324.167C301.003 326.33 297.702 327.9 293.852 328.876C290.213 329.762 286.871 329.875 283.826 329.217C280.772 328.527 278.093 327.23 275.789 325.325C273.477 323.389 271.582 321.002 270.104 318.165C268.618 315.297 267.576 312.139 266.979 308.692ZM280.069 303.979L280.256 305.041C280.507 306.592 280.883 308.227 281.383 309.947C281.875 311.635 282.565 313.184 283.454 314.596C284.334 315.976 285.444 317.024 286.785 317.74C288.149 318.416 289.829 318.517 291.825 318.043C293.987 317.558 295.699 316.655 296.96 315.335C298.243 313.975 299.179 312.389 299.767 310.577C300.355 308.765 300.681 306.856 300.744 304.849C300.838 302.833 300.756 300.916 300.499 299.097L300.372 298.069C300.089 296.527 299.697 294.896 299.197 293.177C298.729 291.449 298.05 289.879 297.162 288.467C296.264 287.024 295.13 285.949 293.757 285.242C292.377 284.503 290.668 284.359 288.632 284.81C286.479 285.327 284.776 286.261 283.523 287.612C282.271 288.963 281.343 290.581 280.741 292.464C280.161 294.308 279.84 296.233 279.777 298.24C279.746 300.238 279.843 302.151 280.069 303.979ZM346.344 234.759L356.887 231.85C357.554 234.806 357.633 237.398 357.124 239.627C356.638 241.816 355.698 243.758 354.302 245.452C352.898 247.114 351.147 248.618 349.049 249.962C346.975 251.267 344.713 252.504 342.265 253.674C338.893 255.296 336.28 257.286 334.423 259.645C332.59 261.963 331.307 264.571 330.575 267.468C329.834 270.333 329.507 273.356 329.593 276.536C329.672 279.686 330.004 282.901 330.59 286.182L330.921 288.521L320.915 292.853L320.524 290.48C319.743 286.105 319.378 281.651 319.43 277.117C319.514 272.575 320.15 268.203 321.338 264.002C322.518 259.77 324.412 255.934 327.021 252.495C329.652 249.016 333.15 246.179 337.512 243.984C338.818 243.326 340.178 242.62 341.593 241.866C343.007 241.111 344.169 240.172 345.078 239.049C346.019 237.917 346.441 236.487 346.344 234.759ZM342.932 262.852C346.311 262.003 349.373 261.915 352.119 262.587C354.864 263.259 357.278 264.51 359.359 266.341C361.432 268.139 363.146 270.356 364.501 272.99C365.848 275.593 366.813 278.468 367.396 281.615L367.583 282.678C368.16 286.299 368.151 289.809 367.555 293.208C366.982 296.568 365.835 299.678 364.115 302.539C362.418 305.36 360.212 307.797 357.497 309.848C354.773 311.868 351.576 313.326 347.906 314.219C344.15 315.17 340.741 315.285 337.679 314.564C334.648 313.835 331.972 312.486 329.651 310.518C327.321 308.519 325.389 306.058 323.854 303.135C322.351 300.204 321.25 297.012 320.55 293.559L320.363 292.497C320.292 291.74 320.478 290.931 320.919 290.069C321.36 289.208 321.856 288.365 322.408 287.541C322.952 286.685 323.343 285.887 323.581 285.148C324.708 281.841 326.07 278.655 327.668 275.592C329.265 272.528 331.293 269.87 333.752 267.618C336.202 265.335 339.262 263.746 342.932 262.852ZM342.543 274.29C339.981 274.917 338.026 276.105 336.679 277.853C335.323 279.57 334.44 281.597 334.028 283.935C333.648 286.264 333.634 288.578 333.988 290.876L334.162 291.892C334.422 293.474 334.828 295.033 335.38 296.57C335.931 298.107 336.642 299.483 337.511 300.697C338.411 301.903 339.542 302.777 340.903 303.319C342.264 303.86 343.895 303.907 345.798 303.459C347.794 302.985 349.408 302.159 350.64 300.982C351.904 299.796 352.84 298.396 353.447 296.781C354.055 295.166 354.416 293.449 354.53 291.63C354.644 289.812 354.577 288.009 354.328 286.221L354.154 285.206C353.871 283.664 353.446 282.16 352.88 280.695C352.337 279.189 351.612 277.885 350.706 276.782C349.823 275.638 348.709 274.827 347.365 274.348C346.012 273.838 344.405 273.819 342.543 274.29ZM406.056 242.65L407.106 253.799L382.695 260.418L381.645 249.269L406.056 242.65ZM415.67 240.043L420.636 293.436L407.394 297.027L402.427 243.634L415.67 240.043ZM378.346 250.163L391.447 246.611L392.615 273.867C392.799 276.414 392.894 279.002 392.899 281.631C392.895 284.229 392.673 286.769 392.232 289.249C391.815 291.689 391.082 293.962 390.034 296.068C389.009 298.133 387.556 299.927 385.675 301.449C383.794 302.971 381.389 304.112 378.458 304.873L373.746 306.151L372.177 295.142L373.707 294.626C375.361 294.009 376.65 293.103 377.574 291.908C378.489 290.682 379.141 289.291 379.528 287.736C379.947 286.172 380.175 284.525 380.212 282.795C380.28 281.056 380.243 279.363 380.1 277.715C379.957 276.068 379.832 274.55 379.725 273.163L378.346 250.163ZM457.641 249.86L458.644 261.022L431.876 268.28L430.779 257.144L457.641 249.86ZM440.081 233.424L445.048 286.817L431.758 290.42L426.792 237.027L440.081 233.424ZM449.358 259.239L449.218 258.164C448.678 254.432 448.665 250.776 449.179 247.197C449.723 243.609 450.815 240.294 452.452 237.253C454.113 234.172 456.315 231.535 459.059 229.34C461.826 227.106 465.15 225.496 469.031 224.511C472.733 223.609 476.095 223.507 479.117 224.205C482.171 224.895 484.858 226.223 487.18 228.191C489.492 230.127 491.396 232.545 492.89 235.445C494.376 238.314 495.407 241.492 495.981 244.978L496.121 246.054C496.692 249.777 496.685 253.422 496.101 256.987C495.547 260.543 494.436 263.846 492.767 266.896C491.09 269.914 488.879 272.52 486.135 274.715C483.382 276.878 480.081 278.447 476.231 279.424C472.593 280.309 469.251 280.423 466.205 279.764C463.151 279.075 460.472 277.778 458.168 275.873C455.856 273.937 453.961 271.55 452.483 268.713C450.997 265.844 449.955 262.686 449.358 259.239ZM462.448 254.526L462.635 255.589C462.887 257.139 463.263 258.774 463.762 260.494C464.254 262.182 464.944 263.732 465.833 265.143C466.713 266.524 467.823 267.572 469.164 268.287C470.528 268.963 472.208 269.064 474.204 268.59C476.366 268.105 478.078 267.203 479.339 265.883C480.623 264.523 481.558 262.937 482.146 261.125C482.734 259.313 483.06 257.403 483.123 255.396C483.217 253.381 483.136 251.463 482.878 249.644L482.751 248.616C482.468 247.074 482.077 245.443 481.577 243.724C481.108 241.996 480.429 240.426 479.541 239.015C478.644 237.571 477.509 236.496 476.137 235.789C474.756 235.05 473.047 234.907 471.011 235.358C468.858 235.874 467.155 236.808 465.902 238.159C464.65 239.511 463.722 241.128 463.12 243.012C462.541 244.855 462.219 246.78 462.157 248.787C462.125 250.786 462.222 252.699 462.448 254.526ZM250.29 406.111L255.257 459.504L241.967 463.107L237.001 409.714L250.29 406.111ZM266.219 401.792L267.231 412.799L222.319 424.977L221.308 413.97L266.219 401.792ZM298.68 448.741C295.176 449.624 291.855 449.816 288.718 449.318C285.573 448.788 282.755 447.663 280.265 445.944C277.807 444.216 275.737 441.994 274.057 439.28C272.376 436.565 271.202 433.477 270.533 430.016L270.198 428.032C269.612 424.38 269.56 420.768 270.042 417.197C270.524 413.626 271.564 410.309 273.162 407.245C274.751 404.15 276.897 401.493 279.601 399.276C282.328 397.019 285.605 395.422 289.433 394.486C293 393.586 296.227 393.486 299.116 394.187C302.004 394.888 304.533 396.192 306.703 398.1C308.873 400.007 310.645 402.376 312.02 405.208C313.386 408.008 314.335 411.073 314.867 414.402L315.647 420.262L276.249 430.945L275.256 421.5L301.283 414.494L301.199 413.252C300.982 411.456 300.469 409.875 299.66 408.509C298.843 407.111 297.745 406.11 296.367 405.506C294.989 404.902 293.349 404.824 291.447 405.272C289.262 405.797 287.563 406.746 286.351 408.121C285.138 409.495 284.278 411.111 283.77 412.969C283.262 414.827 283.012 416.767 283.02 418.788C283.02 420.778 283.144 422.667 283.393 424.454L283.716 426.39C284.01 428.098 284.509 429.751 285.212 431.348C285.906 432.913 286.793 434.258 287.874 435.381C288.985 436.496 290.296 437.288 291.806 437.755C293.347 438.214 295.116 438.207 297.112 437.733C299.642 437.114 301.819 436.001 303.643 434.394C305.49 432.746 307.023 430.813 308.243 428.593L316.123 434.146C315.288 436.666 313.959 438.915 312.135 440.894C310.333 442.833 308.261 444.457 305.918 445.767C303.583 447.108 301.171 448.1 298.68 448.741ZM347.132 355.771L357.675 352.861C358.342 355.817 358.421 358.409 357.912 360.638C357.427 362.828 356.486 364.769 355.09 366.463C353.686 368.125 351.935 369.629 349.838 370.973C347.763 372.278 345.501 373.515 343.053 374.685C339.682 376.307 337.068 378.298 335.211 380.656C333.378 382.974 332.095 385.582 331.363 388.479C330.622 391.344 330.295 394.367 330.382 397.548C330.46 400.697 330.792 403.912 331.378 407.193L331.709 409.532L321.703 413.864L321.312 411.491C320.531 407.116 320.166 402.662 320.218 398.128C320.302 393.586 320.938 389.214 322.126 385.013C323.306 380.781 325.2 376.945 327.809 373.506C330.441 370.027 333.938 367.19 338.301 364.995C339.606 364.337 340.966 363.631 342.381 362.877C343.795 362.122 344.957 361.183 345.867 360.06C346.808 358.928 347.229 357.498 347.132 355.771ZM343.72 383.863C347.099 383.014 350.161 382.926 352.907 383.598C355.652 384.27 358.066 385.522 360.147 387.352C362.22 389.151 363.934 391.367 365.289 394.001C366.636 396.604 367.601 399.479 368.185 402.626L368.371 403.689C368.949 407.31 368.939 410.82 368.343 414.219C367.77 417.579 366.624 420.689 364.903 423.55C363.206 426.371 361 428.808 358.285 430.859C355.561 432.88 352.364 434.337 348.694 435.231C344.938 436.182 341.529 436.296 338.467 435.575C335.436 434.846 332.76 433.497 330.439 431.529C328.109 429.53 326.177 427.069 324.643 424.146C323.14 421.215 322.038 418.023 321.338 414.57L321.151 413.508C321.081 412.751 321.266 411.942 321.707 411.08C322.148 410.219 322.644 409.376 323.197 408.552C323.74 407.696 324.131 406.899 324.369 406.16C325.496 402.852 326.858 399.667 328.456 396.603C330.054 393.539 332.082 390.881 334.54 388.629C336.99 386.346 340.05 384.757 343.72 383.863ZM343.331 395.301C340.769 395.928 338.815 397.116 337.467 398.864C336.112 400.581 335.228 402.608 334.816 404.946C334.436 407.275 334.422 409.589 334.776 411.888L334.95 412.903C335.21 414.485 335.616 416.044 336.168 417.581C336.72 419.118 337.43 420.494 338.299 421.708C339.199 422.914 340.33 423.788 341.691 424.33C343.052 424.872 344.684 424.918 346.586 424.47C348.582 423.996 350.196 423.17 351.429 421.993C352.692 420.807 353.628 419.407 354.236 417.792C354.843 416.177 355.204 414.46 355.318 412.641C355.432 410.823 355.365 409.02 355.116 407.232L354.942 406.217C354.659 404.675 354.234 403.171 353.668 401.706C353.125 400.2 352.4 398.896 351.494 397.793C350.611 396.649 349.497 395.838 348.153 395.36C346.801 394.849 345.193 394.83 343.331 395.301ZM386.248 396.666L400.433 392.82L389.143 423.2L375.005 427.034L386.248 396.666ZM392.222 367.575L414.762 361.514L419.728 414.907L406.533 418.485L402.578 376.1L394.695 378.186C393.267 378.641 391.922 379.343 390.662 380.292C389.424 381.201 388.448 382.326 387.732 383.666C387.008 384.976 386.717 386.454 386.861 388.102C386.99 389.45 387.429 390.511 388.179 391.286C388.92 392.029 389.83 392.524 390.909 392.771C392.011 392.979 393.167 392.952 394.378 392.691L408.859 388.815L409.761 398.486L396.788 401.953C394.415 402.529 391.997 402.814 389.533 402.808C387.06 402.77 384.727 402.374 382.532 401.62C380.33 400.834 378.441 399.592 376.868 397.894C375.326 396.187 374.251 393.966 373.644 391.23C372.975 388.14 373.053 385.319 373.879 382.768C374.697 380.186 376.034 377.901 377.889 375.913C379.768 373.886 381.953 372.181 384.445 370.797C386.959 369.373 389.552 368.299 392.222 367.575ZM442.307 396.491L443.205 405.961C443.656 409.987 443.292 413.931 442.113 417.792C440.942 421.685 439.157 425.238 436.757 428.452L428.927 426.629C429.458 424.731 429.997 422.865 430.545 421.03C431.102 419.226 431.531 417.39 431.834 415.52C432.145 413.682 432.229 411.754 432.086 409.735L431.138 399.52L442.307 396.491ZM266.999 560.647L276.574 520.209L287.884 517.142L273.576 575.762L264.622 578.189L240.428 530.01L250.702 527.224L266.999 560.647ZM247.827 528.004L252.841 581.384L239.598 584.975L234.584 531.594L247.827 528.004ZM285.122 572.631L280.156 519.238L293.398 515.647L298.365 569.04L285.122 572.631ZM335.493 546.628L332.877 522.801C332.659 521.376 332.247 520.105 331.64 518.988C331.034 517.87 330.197 517.086 329.13 516.633C328.086 516.14 326.77 516.076 325.182 516.439C323.759 516.791 322.555 517.387 321.569 518.228C320.606 519.029 319.895 520.014 319.436 521.184C318.969 522.322 318.773 523.59 318.848 524.986L305.584 528.684C304.975 525.813 305.1 523.166 305.96 520.74C306.843 518.275 308.205 516.084 310.046 514.168C311.888 512.252 314.012 510.631 316.417 509.304C318.855 507.969 321.323 506.996 323.822 506.386C327.389 505.486 330.747 505.368 333.895 506.032C337.074 506.688 339.76 508.135 341.952 510.374C344.168 512.572 345.593 515.592 346.23 519.433L348.625 542.258C348.836 544.157 349.136 546.133 349.524 548.186C349.904 550.208 350.698 552.017 351.906 553.612L352.042 554.485L339.048 558.059C337.948 556.368 337.134 554.548 336.606 552.6C336.101 550.612 335.73 548.622 335.493 546.628ZM335.279 525.691L336.09 533.718L329.338 535.498C327.995 535.895 326.696 536.45 325.438 537.162C324.204 537.834 323.115 538.669 322.171 539.667C321.219 540.633 320.511 541.753 320.047 543.026C319.614 544.29 319.512 545.717 319.741 547.308C319.882 548.45 320.26 549.41 320.875 550.187C321.483 550.933 322.247 551.451 323.169 551.741C324.122 552.022 325.168 552.025 326.308 551.75C327.919 551.347 329.408 550.622 330.778 549.576C332.138 548.499 333.222 547.21 334.029 545.71C334.837 544.209 335.247 542.614 335.261 540.924L339.686 546.048C339.409 548.012 338.89 549.89 338.128 551.681C337.397 553.465 336.442 555.106 335.264 556.606C334.077 558.075 332.68 559.331 331.074 560.373C329.477 561.447 327.668 562.241 325.649 562.755C322.836 563.45 320.081 563.489 317.384 562.871C314.71 562.213 312.383 560.972 310.404 559.148C308.449 557.284 307.133 554.858 306.458 551.87C305.681 548.506 305.764 545.516 306.707 542.899C307.641 540.251 309.144 537.955 311.214 536.011C313.315 534.058 315.723 532.427 318.437 531.118C321.174 529.769 323.956 528.711 326.784 527.944L335.279 525.691ZM388.208 527.781L397.783 487.343L409.093 484.276L394.785 542.895L385.831 545.323L361.637 497.144L371.911 494.358L388.208 527.781ZM369.036 495.138L374.05 548.518L360.807 552.109L355.793 498.728L369.036 495.138ZM406.331 539.765L401.365 486.372L414.607 482.781L419.574 536.174L406.331 539.765ZM456.702 513.762L454.086 489.935C453.868 488.51 453.456 487.239 452.849 486.122C452.243 485.004 451.406 484.219 450.339 483.767C449.295 483.274 447.979 483.209 446.391 483.573C444.969 483.924 443.764 484.521 442.778 485.362C441.815 486.162 441.104 487.148 440.645 488.318C440.178 489.456 439.982 490.723 440.057 492.12L426.793 495.817C426.184 492.947 426.309 490.299 427.169 487.874C428.052 485.409 429.414 483.218 431.256 481.302C433.097 479.386 435.221 477.765 437.626 476.438C440.064 475.102 442.532 474.13 445.031 473.519C448.598 472.62 451.956 472.502 455.104 473.166C458.283 473.822 460.969 475.269 463.162 477.507C465.377 479.706 466.803 482.726 467.439 486.567L469.834 509.392C470.045 511.291 470.345 513.267 470.733 515.32C471.113 517.342 471.907 519.151 473.115 520.745L473.251 521.619L460.257 525.193C459.157 523.501 458.343 521.682 457.815 519.734C457.31 517.746 456.939 515.755 456.702 513.762ZM456.488 492.825L457.299 500.851L450.547 502.632C449.205 503.029 447.905 503.584 446.647 504.296C445.413 504.968 444.324 505.803 443.38 506.801C442.428 507.767 441.72 508.887 441.256 510.159C440.823 511.424 440.721 512.851 440.95 514.441C441.091 515.584 441.469 516.544 442.085 517.321C442.692 518.067 443.456 518.585 444.378 518.875C445.331 519.156 446.377 519.159 447.517 518.883C449.128 518.48 450.618 517.756 451.987 516.71C453.347 515.633 454.431 514.344 455.238 512.844C456.046 511.343 456.456 509.748 456.47 508.058L460.895 513.182C460.618 515.146 460.099 517.023 459.337 518.815C458.606 520.598 457.651 522.24 456.473 523.74C455.286 525.209 453.889 526.464 452.283 527.507C450.686 528.581 448.878 529.375 446.858 529.889C444.045 530.584 441.29 530.623 438.593 530.005C435.919 529.347 433.592 528.106 431.614 526.282C429.658 524.417 428.342 521.992 427.667 519.004C426.89 515.64 426.973 512.649 427.916 510.033C428.85 507.385 430.353 505.089 432.423 503.145C434.524 501.192 436.932 499.561 439.646 498.252C442.383 496.902 445.165 495.844 447.993 495.078L456.488 492.825ZM489.377 443.585L492.494 493.888L481.467 496.878L475.287 447.406L489.377 443.585ZM481.1 513.066C480.458 510.946 480.676 509.015 481.755 507.272C482.857 505.49 484.445 504.317 486.518 503.755C488.521 503.178 490.419 503.338 492.213 504.234C493.999 505.099 495.185 506.548 495.77 508.582C496.372 510.678 496.123 512.618 495.021 514.401C493.942 516.144 492.366 517.296 490.292 517.858C488.321 518.427 486.443 518.278 484.657 517.413C482.871 516.549 481.685 515.099 481.1 513.066Z" fill="#BD7B7B"/>
</svg>
