<svg width="1068" height="264" viewBox="0 0 1068 264" fill="none" xmlns="http://www.w3.org/2000/svg">
<path d="M137 55.5879C137 89.8576 102.564 144 67.2545 144C31.9451 144 0 89.8576 0 55.588C0 21.3183 42.3455 0.837345 67.2545 43.8267C99.2576 -0.379322 137 21.3183 137 55.5879Z" fill="#BD7B7B"/>
<path d="M261.811 191.721C261.811 219.559 232.199 263.54 201.835 263.54C171.471 263.54 144 219.559 144 191.721C144 163.883 180.414 147.246 201.835 182.167C229.355 146.258 261.811 163.883 261.811 191.721Z" fill="#BD7B7B"/>
<path d="M1067.81 29.7212C1067.81 57.5592 1038.2 101.54 1007.83 101.54C977.471 101.54 950 57.5592 950 29.7212C950 1.88323 986.414 -14.7539 1007.83 20.1673C1035.36 -15.7423 1067.81 1.88321 1067.81 29.7212Z" fill="#BD7B7B"/>
</svg>
