<svg width="1440" height="134" viewBox="0 0 1440 134" fill="none" xmlns="http://www.w3.org/2000/svg">
<rect x="-1" y="-1" width="1442" height="134" fill="white" stroke="#D7D7D7" stroke-width="2"/>
<path d="M114.762 69.9398L101.254 50.0025H107.341L114.761 60.9143L122.183 50.0015H129.437V77.939H124.017V56.2383L114.763 69.9408L114.762 69.9398ZM105.42 77.9803H100V71.7445L105.42 63.7296V77.9803ZM136.772 77.9803V50.0025H142.192V70.7605L156.199 50.0025H162.536V77.9803H157.283V57.5569L143.359 77.9803H136.772ZM203.381 77.9803V50.0025H208.801V70.7605L222.809 50.0025H229.145V77.9803H223.892V57.7232L210.137 77.9803H203.381ZM247.163 50.0025C254.902 49.8815 258.731 54.1885 260.001 56.5659L255.803 58.8095C253.739 54.716 249.497 54.1088 247.163 54.2338C243.764 54.4139 238.236 56.8602 238.236 64.1459C238.236 71.4306 244.324 73.4676 247.368 73.5748C252.249 73.5748 254.999 70.6897 255.778 69.1172L260.001 71.4611C256.528 77.199 250.726 77.9262 247.368 77.9262C237.253 77.9262 233.118 69.6259 233.118 64.1459C233.118 55.4825 239.506 50.0025 247.163 50.0025Z" fill="#FC4C00"/>
<path fill-rule="evenodd" clip-rule="evenodd" d="M172.041 82.0001V77.8652H193.844V81.9587H199.305V73.4764H194.72V50.0025H173.374C173.333 70.7192 170.164 73.4764 169.289 73.4764H166.538V82.0001H172.041ZM189.384 54.3509H178.46C178.21 67.3145 176.042 72.8201 175.125 73.4764H189.382V54.3509H189.384Z" fill="#FC4C00"/>
</svg>
